<svg xmlns="http://www.w3.org/2000/svg" viewBox="0 0 14.51 12">
    <defs>
        <style>.cls-1{fill:#424242;fill-rule:evenodd;}</style>
    </defs>
    <title>icon-twitter</title>
    <g id="Слой_2" data-name="Слой 2">
        <g id="Footer">
            <g id="fa-twitter">
                <path class="cls-1"
                      d="M14.51,1.42a5.88,5.88,0,0,1-1.71.47A3,3,0,0,0,14.1.22,5.79,5.79,0,0,1,12.21,1,2.94,2.94,0,0,0,10,0a3,3,0,0,0-3,3,3.48,3.48,0,0,0,.07.69A8.4,8.4,0,0,1,1,.55a3.07,3.07,0,0,0,.92,4A3,3,0,0,1,.59,4.22v0A3,3,0,0,0,3,7.23a3.09,3.09,0,0,1-.78.1,3.68,3.68,0,0,1-.56,0,3,3,0,0,0,2.78,2.1A5.89,5.89,0,0,1,.72,10.68a6,6,0,0,1-.72,0A8.29,8.29,0,0,0,4.57,12,8.48,8.48,0,0,0,13,3.38c0-.13,0-.26,0-.39A6.46,6.46,0,0,0,14.51,1.42Z"/>
            </g>
        </g>
    </g>
</svg>