<svg xmlns="http://www.w3.org/2000/svg" viewBox="0 0 12 10">
    <defs>
        <style>.cls-1{fill:#fff;fill-rule:evenodd;}</style>
    </defs>
    <title>icon-cart</title>
    <g id="Слой_2" data-name="Слой 2">
        <g id="Home">
            <g id="Navbar">
                <g id="fa-shopping-cart">
                    <path class="cls-1"
                          d="M9.23,9.09a.92.92,0,1,0,.92-.91A.91.91,0,0,0,9.23,9.09Zm-6.46,0a.92.92,0,1,0,.92-.91A.91.91,0,0,0,2.77,9.09ZM11.54.91H2.88C2.81.57,2.8,0,2.31,0H.46A.46.46,0,0,0,0,.45.46.46,0,0,0,.46.91H1.93L3.21,6.75a3.9,3.9,0,0,0-.44,1,.46.46,0,0,0,.46.45h7.38a.45.45,0,1,0,0-.91H4a1.07,1.07,0,0,0,.17-.45,2.88,2.88,0,0,0-.09-.5l7.53-.87A.46.46,0,0,0,12,5V1.36A.46.46,0,0,0,11.54.91Z"/>
                </g>
            </g>
        </g>
    </g>
</svg>